<?xml version="1.0" encoding="utf-8"?>
<!-- Generator: Adobe Illustrator 15.1.0, SVG Export Plug-In . SVG Version: 6.00 Build 0)  -->
<!DOCTYPE svg PUBLIC "-//W3C//DTD SVG 1.1//EN" "http://www.w3.org/Graphics/SVG/1.1/DTD/svg11.dtd">
<svg version="1.1" id="Layer_1" xmlns="http://www.w3.org/2000/svg" xmlns:xlink="http://www.w3.org/1999/xlink" x="0px" y="0px"
	 width="529.872px" height="73.77px" viewBox="0 0 529.872 73.77" enable-background="new 0 0 529.872 73.77" xml:space="preserve">
<g>
	<polygon fill="#EAEAEA" points="42.262,47.808 42.262,40.162 15.124,27.601 42.262,15.04 42.262,7.394 0,27.601 	"/>
	<rect x="50.623" fill="#EAEAEA" width="7.603" height="60.453"/>
	<path fill="#EAEAEA" d="M107.881,40.078c0-6.161-1.834-11.09-5.503-14.788c-4.256-4.257-9.453-6.386-15.585-6.386
		c-6.077,0-11.224,2.102-15.439,6.302c-4.215,4.202-6.323,9.201-6.323,14.997c0,5.743,2.107,10.719,6.323,14.935
		c4.215,4.215,9.362,6.322,15.439,6.322c6.132,0,11.329-2.143,15.585-6.427c1.401-1.373,2.633-2.955,3.698-4.747l-7.142-2.521
		c-1.121,1.373-1.877,2.256-2.27,2.647c-2.829,2.829-6.119,4.243-9.872,4.243c-3.782,0-7.058-1.386-9.83-4.159
		c-2.773-2.772-4.159-6.203-4.159-10.292v-0.125H107.881z M86.793,25.626c6.554,0,10.727,2.605,12.518,7.814H74.148
		C75.996,28.231,80.211,25.626,86.793,25.626z"/>
	<polygon fill="#EAEAEA" points="125.442,7.142 117.881,7.142 117.881,22.055 110.739,22.055 110.739,28.609 117.881,28.609 
		117.881,60.453 125.442,60.453 125.442,28.609 132.583,28.609 132.583,22.055 125.442,22.055 	"/>
	<path fill="#EAEAEA" d="M150.942,35.288c-1.737-1.092-2.843-1.89-3.319-2.394c-0.729-0.729-1.092-1.625-1.092-2.689
		c0-1.065,0.322-1.918,0.967-2.563c0.643-0.643,1.33-0.965,2.057-0.965c0.729,0,1.366,0.279,1.912,0.84
		c0.547,0.561,1.03,2.422,1.45,5.587l6.806-2.772v-1.176c0-2.27-0.953-4.355-2.857-6.26c-1.848-1.875-4.284-2.813-7.31-2.813
		c-3.024,0-5.544,1.022-7.56,3.065c-2.018,2.045-3.026,4.397-3.026,7.058c0,2.689,1.037,5.069,3.11,7.142
		c1.063,1.064,3.024,2.381,5.88,3.95c2.129,1.372,3.529,2.38,4.202,3.024c1.12,1.092,1.68,2.436,1.68,4.033
		c0,1.651-0.524,2.997-1.575,4.033c-1.051,1.035-2.205,1.555-3.466,1.555c-1.26,0-2.409-0.52-3.444-1.555
		c-1.036-1.036-1.555-3.179-1.555-6.427l-7.562,1.889c0,3.614,1.198,6.624,3.593,9.033c2.394,2.409,5.383,3.614,8.968,3.614
		c3.585,0,6.568-1.205,8.949-3.614s3.571-5.251,3.571-8.527c0-3.193-1.148-5.965-3.444-8.319
		C156.417,38.607,154.106,37.024,150.942,35.288z"/>
	<path fill="#98C53D" d="M202.109,26.55c-3.024-5.069-7.589-7.603-13.694-7.603c-6.077,0-11.224,2.093-15.439,6.28
		c-4.215,4.188-6.323,9.18-6.323,14.977c0,5.743,2.107,10.719,6.323,14.935c4.215,4.215,9.362,6.322,15.439,6.322
		c6.134,0,10.516-2.506,13.149-7.519c-1.064,7.421-5.56,11.133-13.485,11.133c-3.753,0-6.988-1.373-9.705-4.118
		c-0.393-0.336-1.079-1.12-2.059-2.352l-7.267,2.646c1.456,1.932,2.661,3.388,3.612,4.369c4.174,4.172,9.312,6.259,15.418,6.259
		c6.105,0,11.286-2.141,15.544-6.427c4.061-4.033,6.091-8.865,6.091-14.493V22.055h-7.604V26.55z M202.068,43.48
		c-0.56,2.688-1.82,5.013-3.78,6.974c-2.83,2.829-6.12,4.243-9.873,4.243c-3.782,0-7.058-1.394-9.83-4.181
		c-2.773-2.786-4.159-6.223-4.159-10.313c0-4.117,1.385-7.576,4.159-10.375c2.772-2.801,6.048-4.202,9.83-4.202
		c3.753,0,6.988,1.373,9.704,4.118c2.072,2.1,3.389,4.509,3.949,7.226V43.48z"/>
	<path fill="#98C53D" d="M237.524,18.904c-6.077,0-11.224,2.102-15.438,6.302c-4.216,4.202-6.323,9.201-6.323,14.997
		c0,5.743,2.107,10.719,6.323,14.935c4.214,4.215,9.36,6.322,15.438,6.322c6.134,0,11.287-2.107,15.46-6.322
		c4.173-4.216,6.26-9.192,6.26-14.935c0-5.796-2.087-10.795-6.26-14.997C248.811,21.005,243.658,18.904,237.524,18.904z
		 M247.333,50.496c-2.786,2.773-6.056,4.159-9.81,4.159c-3.78,0-7.058-1.386-9.83-4.159c-2.772-2.772-4.159-6.203-4.159-10.292
		c0-4.117,1.387-7.576,4.159-10.375c2.772-2.801,6.05-4.202,9.83-4.202c3.754,0,7.023,1.4,9.81,4.202
		c2.787,2.8,4.181,6.259,4.181,10.375C251.514,44.293,250.121,47.724,247.333,50.496z"/>
	<path fill="#EAEAEA" d="M323.225,40.078c0-6.161-1.834-11.09-5.503-14.788c-4.257-4.257-9.453-6.386-15.587-6.386
		c-6.077,0-11.224,2.102-15.438,6.302c-4.216,4.202-6.322,9.201-6.322,14.997c0,5.743,2.106,10.719,6.322,14.935
		c4.214,4.215,9.36,6.322,15.438,6.322c6.134,0,11.33-2.143,15.587-6.427c1.4-1.373,2.632-2.955,3.696-4.747l-7.143-2.521
		c-1.119,1.373-1.875,2.256-2.268,2.647c-2.829,2.829-6.12,4.243-9.873,4.243c-3.78,0-7.058-1.386-9.83-4.159
		c-2.772-2.772-4.159-6.203-4.159-10.292v-0.125H323.225z M302.135,25.626c6.554,0,10.727,2.605,12.52,7.814h-25.164
		C291.34,28.231,295.554,25.626,302.135,25.626z"/>
	<path fill="#EAEAEA" d="M335.577,27.517v-5.461h-7.604v38.397h7.604V40.287c0-3.36,0.951-6.155,2.856-8.38
		c1.904-2.227,4.593-3.607,8.065-4.139l-3.697-6.511C339.105,22.434,336.696,24.52,335.577,27.517z"/>
	<path fill="#EAEAEA" d="M393.718,40.078c0-6.161-1.835-11.09-5.505-14.788c-4.257-4.257-9.451-6.386-15.585-6.386
		c-6.077,0-11.224,2.102-15.439,6.302c-4.214,4.202-6.322,9.201-6.322,14.997c0,5.743,2.108,10.719,6.322,14.935
		c4.216,4.215,9.362,6.322,15.439,6.322c6.134,0,11.328-2.143,15.585-6.427c1.4-1.373,2.634-2.955,3.698-4.747l-7.143-2.521
		c-1.119,1.373-1.875,2.256-2.268,2.647c-2.829,2.829-6.12,4.243-9.873,4.243c-3.78,0-7.058-1.386-9.83-4.159
		c-2.772-2.772-4.159-6.203-4.159-10.292v-0.125H393.718z M372.628,25.626c6.554,0,10.727,2.605,12.52,7.814h-25.164
		C361.832,28.231,366.047,25.626,372.628,25.626z"/>
	<path fill="#EAEAEA" d="M429.51,19.996c-3.585,0-6.512,0.896-8.779,2.689c-2.325-1.793-5.28-2.689-8.865-2.689
		c-3.08,0-5.657,0.687-7.729,2.059h-4.747v38.397h7.604V28.819c1.176-1.513,2.801-2.27,4.873-2.27c2.97,0,4.607,1.163,4.915,3.487
		h0.043v30.416h7.604V29.828c0.924-2.186,2.618-3.278,5.083-3.278c2.969,0,4.621,1.163,4.957,3.487v30.416h7.604V31.676
		c-0.111-3.053-1.273-5.714-3.486-7.982C436.121,21.229,433.094,19.996,429.51,19.996z"/>
	<polygon fill="#EAEAEA" points="465.05,43.27 455.052,22.055 446.861,22.055 460.934,52.26 450.936,73.77 459.126,73.77 
		483.241,22.055 475.049,22.055 	"/>
	<polygon fill="#EAEAEA" points="487.61,7.394 487.61,15.04 514.749,27.601 487.61,40.162 487.61,47.808 529.872,27.601 	"/>
	<path fill="#EAEAEA" d="M266.108,25.207h0.025v33.649c0,1.932-1.442,3.067-4.328,3.403v6.216
		c7.927-0.643,11.889-3.878,11.889-9.703V25.207v-3.152v-8.894h-7.587V25.207z"/>
</g>
</svg>
